<svg xmlns="http://www.w3.org/2000/svg" viewBox="30 4 163 51"><g fill="#fff" clip-rule="evenodd"><path d="m78.92 32.64-6.66-6.66-4.25 1.42 2.83-2.83 9.67-9.67c.8-.8.8-2.11 0-2.91l-6.62-6.62c-.39-.39-.91-.6-1.46-.6-.55 0-1.07.22-1.46.6L53.23 23.11c-.8.8-.8 2.11 0 2.91l8.08 8.08-9.67 9.67c-.8.8-.8 2.11 0 2.91l6.62 6.62c.39.39.91.6 1.46.6s1.07-.22 1.46-.6l17.74-17.74c.81-.81.81-2.11 0-2.92"/><path d="m56.67 32.64-6.66-6.66-4.25 1.42 2.84-2.84 9.67-9.67c.39-.39.6-.91.6-1.46s-.22-1.07-.6-1.46l-6.62-6.62a2.076 2.076 0 0 0-2.92 0L30.98 23.11c-.8.81-.8 2.11 0 2.91l16.16 16.16c.4.4.93.6 1.46.6s1.06-.2 1.46-.6l6.62-6.62c.8-.81.8-2.11-.01-2.92M102.76 11.99l-6.62-6.62c-.39-.39-.91-.6-1.46-.6s-1.07.22-1.46.6L75.48 23.11c-.39.39-.6.91-.6 1.46s.22 1.07.6 1.46l8.08 8.08-9.67 9.67c-.81.8-.81 2.11 0 2.91l6.62 6.62a2.076 2.076 0 0 0 2.92 0l17.74-17.74c.8-.8.8-2.11 0-2.91L94.51 26l-4.25 1.42 2.84-2.84 9.67-9.67c.8-.82.8-2.12-.01-2.92"/><path d="m123.42 32.64-16.15-16.15c-.4-.4-.93-.6-1.46-.6-.53 0-1.06.2-1.46.6l-6.62 6.62c-.8.81-.8 2.11 0 2.91l8.08 8.08-.01.01 2.82 2.82-4.24-1.41-8.25 8.25c-.39.39-.6.91-.6 1.46 0 .55.22 1.07.6 1.46l6.62 6.62a2.076 2.076 0 0 0 2.92 0l17.74-17.74c.81-.82.81-2.12.01-2.93M190.17 32.64l-6.62-6.62c-.39-.39-.91-.6-1.46-.6s-1.07.22-1.46.6l-9.67 9.67-2.84 2.84 1.42-4.25-8.25-8.25a2.076 2.076 0 0 0-2.92 0l-6.62 6.62c-.39.39-.6.91-.6 1.46 0 .55.22 1.07.6 1.46l9.67 9.67-6.02 6.02a2.058 2.058 0 0 0 1.45 3.52h13.24c.55 0 1.07-.22 1.46-.6l18.6-18.6c.82-.83.82-2.13.02-2.94"/><path d="M157.4 45.23c0-.55-.22-1.07-.6-1.46l-17.74-17.74c-.39-.39-.91-.6-1.46-.6-.55 0-1.07.22-1.46.6L118.4 43.77c-.39.39-.6.91-.6 1.46s.22 1.07.6 1.46l6.62 6.62c.39.39.91.6 1.46.6.55 0 1.07-.22 1.46-.6l6.83-6.83 5.67-5.67-1.42 4.25 8.25 8.25c.4.4.93.6 1.46.6s1.06-.2 1.46-.6l6.62-6.62c.37-.39.59-.92.59-1.46"/></g></svg>
