<svg xmlns="http://www.w3.org/2000/svg" shape-rendering="crispEdges" viewBox="-4 -4 41 41"><path d="M0 0h7v1H0zM0 1h1v5H0zM6 1h1v5H6zM0 6h7v1H0zM2 2h3v3H2zM26 0h7v1h-7zM26 6h7v1h-7zM26 1h1v5h-1zM32 1h1v5h-1zM28 2h3v3h-3zM0 26h7v1H0zM0 32h7v1H0zM0 27h1v5H0zM6 27h1v5H6zM2 28h3v3H2zM9 0h1v1H9zM14 0h1v1h-1zM15 0h1v1h-1zM16 0h1v1h-1zM18 0h1v1h-1zM20 0h1v1h-1zM21 0h1v1h-1zM23 0h1v1h-1zM8 1h1v1H8zM9 1h1v1H9zM11 1h1v1h-1zM12 1h1v1h-1zM13 1h1v1h-1zM14 1h1v1h-1zM17 1h1v1h-1zM18 1h1v1h-1zM22 1h1v1h-1zM23 1h1v1h-1zM24 1h1v1h-1zM9 2h1v1H9zM10 2h1v1h-1zM11 2h1v1h-1zM17 2h1v1h-1zM18 2h1v1h-1zM19 2h1v1h-1zM20 2h1v1h-1zM23 2h1v1h-1zM24 2h1v1h-1zM8 3h1v1H8zM9 3h1v1H9zM11 3h1v1h-1zM14 3h1v1h-1zM15 3h1v1h-1zM16 3h1v1h-1zM20 3h1v1h-1zM21 3h1v1h-1zM24 3h1v1h-1zM10 4h1v1h-1zM12 4h1v1h-1zM20 4h1v1h-1zM21 4h1v1h-1zM22 4h1v1h-1zM23 4h1v1h-1zM24 4h1v1h-1zM8 5h1v1H8zM10 5h1v1h-1zM13 5h1v1h-1zM14 5h1v1h-1zM15 5h1v1h-1zM16 5h1v1h-1zM17 5h1v1h-1zM22 5h1v1h-1zM24 5h1v1h-1zM8 6h1v1H8zM10 6h1v1h-1zM12 6h1v1h-1zM14 6h1v1h-1zM16 6h1v1h-1zM18 6h1v1h-1zM20 6h1v1h-1zM22 6h1v1h-1zM24 6h1v1h-1zM12 7h1v1h-1zM16 7h1v1h-1zM19 7h1v1h-1zM20 7h1v1h-1zM23 7h1v1h-1zM0 8h1v1H0zM1 8h1v1H1zM2 8h1v1H2zM3 8h1v1H3zM4 8h1v1H4zM6 8h1v1H6zM7 8h1v1H7zM8 8h1v1H8zM9 8h1v1H9zM10 8h1v1h-1zM12 8h1v1h-1zM15 8h1v1h-1zM16 8h1v1h-1zM17 8h1v1h-1zM18 8h1v1h-1zM20 8h1v1h-1zM22 8h1v1h-1zM25 8h1v1h-1zM27 8h1v1h-1zM29 8h1v1h-1zM31 8h1v1h-1zM0 9h1v1H0zM1 9h1v1H1zM2 9h1v1H2zM4 9h1v1H4zM5 9h1v1H5zM7 9h1v1H7zM8 9h1v1H8zM9 9h1v1H9zM14 9h1v1h-1zM19 9h1v1h-1zM21 9h1v1h-1zM22 9h1v1h-1zM29 9h1v1h-1zM30 9h1v1h-1zM1 10h1v1H1zM2 10h1v1H2zM6 10h1v1H6zM8 10h1v1H8zM9 10h1v1H9zM11 10h1v1h-1zM12 10h1v1h-1zM13 10h1v1h-1zM14 10h1v1h-1zM15 10h1v1h-1zM16 10h1v1h-1zM17 10h1v1h-1zM20 10h1v1h-1zM28 10h1v1h-1zM29 10h1v1h-1zM31 10h1v1h-1zM0 11h1v1H0zM1 11h1v1H1zM2 11h1v1H2zM3 11h1v1H3zM5 11h1v1H5zM7 11h1v1H7zM8 11h1v1H8zM9 11h1v1H9zM10 11h1v1h-1zM11 11h1v1h-1zM13 11h1v1h-1zM14 11h1v1h-1zM16 11h1v1h-1zM19 11h1v1h-1zM20 11h1v1h-1zM23 11h1v1h-1zM25 11h1v1h-1zM26 11h1v1h-1zM30 11h1v1h-1zM31 11h1v1h-1zM32 11h1v1h-1zM0 12h1v1H0zM1 12h1v1H1zM4 12h1v1H4zM6 12h1v1H6zM9 12h1v1H9zM11 12h1v1h-1zM15 12h1v1h-1zM16 12h1v1h-1zM20 12h1v1h-1zM22 12h1v1h-1zM24 12h1v1h-1zM27 12h1v1h-1zM28 12h1v1h-1zM30 12h1v1h-1zM31 12h1v1h-1zM0 13h1v1H0zM3 13h1v1H3zM8 13h1v1H8zM10 13h1v1h-1zM12 13h1v1h-1zM14 13h1v1h-1zM18 13h1v1h-1zM19 13h1v1h-1zM21 13h1v1h-1zM22 13h1v1h-1zM24 13h1v1h-1zM26 13h1v1h-1zM27 13h1v1h-1zM29 13h1v1h-1zM30 13h1v1h-1zM2 14h1v1H2zM5 14h1v1H5zM6 14h1v1H6zM8 14h1v1H8zM13 14h1v1h-1zM15 14h1v1h-1zM17 14h1v1h-1zM20 14h1v1h-1zM22 14h1v1h-1zM23 14h1v1h-1zM24 14h1v1h-1zM28 14h1v1h-1zM29 14h1v1h-1zM31 14h1v1h-1zM0 15h1v1H0zM2 15h1v1H2zM7 15h1v1H7zM12 15h1v1h-1zM13 15h1v1h-1zM16 15h1v1h-1zM17 15h1v1h-1zM19 15h1v1h-1zM20 15h1v1h-1zM21 15h1v1h-1zM23 15h1v1h-1zM25 15h1v1h-1zM26 15h1v1h-1zM30 15h1v1h-1zM31 15h1v1h-1zM32 15h1v1h-1zM0 16h1v1H0zM2 16h1v1H2zM4 16h1v1H4zM5 16h1v1H5zM6 16h1v1H6zM8 16h1v1H8zM9 16h1v1H9zM10 16h1v1h-1zM12 16h1v1h-1zM13 16h1v1h-1zM14 16h1v1h-1zM15 16h1v1h-1zM16 16h1v1h-1zM18 16h1v1h-1zM20 16h1v1h-1zM24 16h1v1h-1zM25 16h1v1h-1zM29 16h1v1h-1zM31 16h1v1h-1zM0 17h1v1H0zM1 17h1v1H1zM2 17h1v1H2zM3 17h1v1H3zM4 17h1v1H4zM7 17h1v1H7zM8 17h1v1H8zM9 17h1v1H9zM14 17h1v1h-1zM16 17h1v1h-1zM21 17h1v1h-1zM22 17h1v1h-1zM25 17h1v1h-1zM27 17h1v1h-1zM30 17h1v1h-1zM0 18h1v1H0zM4 18h1v1H4zM6 18h1v1H6zM7 18h1v1H7zM9 18h1v1H9zM11 18h1v1h-1zM12 18h1v1h-1zM17 18h1v1h-1zM22 18h1v1h-1zM27 18h1v1h-1zM28 18h1v1h-1zM29 18h1v1h-1zM32 18h1v1h-1zM1 19h1v1H1zM3 19h1v1H3zM5 19h1v1H5zM8 19h1v1H8zM10 19h1v1h-1zM11 19h1v1h-1zM17 19h1v1h-1zM18 19h1v1h-1zM19 19h1v1h-1zM20 19h1v1h-1zM21 19h1v1h-1zM22 19h1v1h-1zM23 19h1v1h-1zM25 19h1v1h-1zM26 19h1v1h-1zM32 19h1v1h-1zM2 20h1v1H2zM3 20h1v1H3zM6 20h1v1H6zM7 20h1v1H7zM8 20h1v1H8zM11 20h1v1h-1zM15 20h1v1h-1zM16 20h1v1h-1zM27 20h1v1h-1zM31 20h1v1h-1zM0 21h1v1H0zM1 21h1v1H1zM2 21h1v1H2zM3 21h1v1H3zM10 21h1v1h-1zM12 21h1v1h-1zM13 21h1v1h-1zM18 21h1v1h-1zM20 21h1v1h-1zM21 21h1v1h-1zM22 21h1v1h-1zM24 21h1v1h-1zM27 21h1v1h-1zM28 21h1v1h-1zM30 21h1v1h-1zM32 21h1v1h-1zM0 22h1v1H0zM2 22h1v1H2zM3 22h1v1H3zM5 22h1v1H5zM6 22h1v1H6zM7 22h1v1H7zM8 22h1v1H8zM9 22h1v1H9zM10 22h1v1h-1zM13 22h1v1h-1zM14 22h1v1h-1zM17 22h1v1h-1zM19 22h1v1h-1zM22 22h1v1h-1zM23 22h1v1h-1zM24 22h1v1h-1zM28 22h1v1h-1zM31 22h1v1h-1zM32 22h1v1h-1zM0 23h1v1H0zM2 23h1v1H2zM5 23h1v1H5zM7 23h1v1H7zM9 23h1v1H9zM12 23h1v1h-1zM13 23h1v1h-1zM16 23h1v1h-1zM18 23h1v1h-1zM19 23h1v1h-1zM20 23h1v1h-1zM21 23h1v1h-1zM22 23h1v1h-1zM23 23h1v1h-1zM25 23h1v1h-1zM26 23h1v1h-1zM29 23h1v1h-1zM31 23h1v1h-1zM32 23h1v1h-1zM0 24h1v1H0zM4 24h1v1H4zM5 24h1v1H5zM6 24h1v1H6zM8 24h1v1H8zM12 24h1v1h-1zM14 24h1v1h-1zM15 24h1v1h-1zM20 24h1v1h-1zM24 24h1v1h-1zM25 24h1v1h-1zM26 24h1v1h-1zM27 24h1v1h-1zM28 24h1v1h-1zM29 24h1v1h-1zM8 25h1v1H8zM10 25h1v1h-1zM15 25h1v1h-1zM16 25h1v1h-1zM19 25h1v1h-1zM21 25h1v1h-1zM22 25h1v1h-1zM23 25h1v1h-1zM24 25h1v1h-1zM28 25h1v1h-1zM30 25h1v1h-1zM8 26h1v1H8zM9 26h1v1H9zM11 26h1v1h-1zM12 26h1v1h-1zM17 26h1v1h-1zM18 26h1v1h-1zM23 26h1v1h-1zM24 26h1v1h-1zM26 26h1v1h-1zM28 26h1v1h-1zM31 26h1v1h-1zM11 27h1v1h-1zM14 27h1v1h-1zM16 27h1v1h-1zM17 27h1v1h-1zM18 27h1v1h-1zM19 27h1v1h-1zM20 27h1v1h-1zM23 27h1v1h-1zM24 27h1v1h-1zM28 27h1v1h-1zM29 27h1v1h-1zM32 27h1v1h-1zM8 28h1v1H8zM10 28h1v1h-1zM11 28h1v1h-1zM15 28h1v1h-1zM16 28h1v1h-1zM21 28h1v1h-1zM22 28h1v1h-1zM24 28h1v1h-1zM25 28h1v1h-1zM26 28h1v1h-1zM27 28h1v1h-1zM28 28h1v1h-1zM29 28h1v1h-1zM32 28h1v1h-1zM8 29h1v1H8zM9 29h1v1H9zM10 29h1v1h-1zM12 29h1v1h-1zM13 29h1v1h-1zM14 29h1v1h-1zM15 29h1v1h-1zM19 29h1v1h-1zM20 29h1v1h-1zM21 29h1v1h-1zM22 29h1v1h-1zM29 29h1v1h-1zM30 29h1v1h-1zM31 29h1v1h-1zM8 30h1v1H8zM9 30h1v1H9zM13 30h1v1h-1zM14 30h1v1h-1zM15 30h1v1h-1zM17 30h1v1h-1zM19 30h1v1h-1zM22 30h1v1h-1zM23 30h1v1h-1zM24 30h1v1h-1zM25 30h1v1h-1zM27 30h1v1h-1zM8 31h1v1H8zM10 31h1v1h-1zM12 31h1v1h-1zM13 31h1v1h-1zM16 31h1v1h-1zM19 31h1v1h-1zM20 31h1v1h-1zM21 31h1v1h-1zM22 31h1v1h-1zM27 31h1v1h-1zM28 31h1v1h-1zM29 31h1v1h-1zM31 31h1v1h-1zM32 31h1v1h-1zM8 32h1v1H8zM10 32h1v1h-1zM12 32h1v1h-1zM14 32h1v1h-1zM15 32h1v1h-1zM20 32h1v1h-1zM21 32h1v1h-1zM22 32h1v1h-1zM23 32h1v1h-1zM26 32h1v1h-1zM29 32h1v1h-1zM30 32h1v1h-1zM31 32h1v1h-1z"/></svg>