<?xml version="1.0" encoding="UTF-8"?>
<svg xmlns="http://www.w3.org/2000/svg" version="1.1" width="500" height="500" viewBox="0 0 500 500">
  <rect x="0" y="0" width="500" height="500" fill="#ffffff" />
  <g transform="scale(17.241)">
    <g transform="translate(0,0)">
      <defs>
        <linearGradient gradientUnits="userSpaceOnUse" x1="0" y1="0" x2="29" y2="29" id="g1">
          <stop offset="0%" stop-color="#1d99fd" />
          <stop offset="100%" stop-color="#ff00f7" />
        </linearGradient>
      </defs>
      <path fill-rule="evenodd"
        d="M9 0L9 1L8 1L8 2L9 2L9 3L8 3L8 4L10 4L10 7L11 7L11 4L12 4L12 8L14 8L14 9L15 9L15 10L12 10L12 9L11 9L11 8L6 8L6 9L9 9L9 10L5 10L5 8L0 8L0 9L2 9L2 10L1 10L1 11L3 11L3 10L4 10L4 12L5 12L5 13L7 13L7 12L5 12L5 11L9 11L9 12L8 12L8 14L5 14L5 15L4 15L4 16L3 16L3 15L2 15L2 13L3 13L3 12L1 12L1 16L2 16L2 17L0 17L0 21L1 21L1 18L2 18L2 19L3 19L3 17L7 17L7 16L8 16L8 14L9 14L9 15L10 15L10 16L12 16L12 15L14 15L14 16L13 16L13 17L12 17L12 19L11 19L11 20L10 20L10 19L9 19L9 20L8 20L8 19L7 19L7 18L6 18L6 19L5 19L5 18L4 18L4 21L7 21L7 20L8 20L8 23L9 23L9 20L10 20L10 22L11 22L11 24L8 24L8 29L10 29L10 27L11 27L11 28L12 28L12 27L13 27L13 28L14 28L14 27L15 27L15 25L16 25L16 26L17 26L17 27L18 27L18 28L17 28L17 29L23 29L23 28L21 28L21 27L22 27L22 25L23 25L23 27L24 27L24 25L25 25L25 23L26 23L26 25L29 25L29 23L27 23L27 22L28 22L28 20L29 20L29 17L28 17L28 19L27 19L27 18L26 18L26 17L25 17L25 15L27 15L27 16L29 16L29 14L28 14L28 13L27 13L27 14L26 14L26 13L25 13L25 12L26 12L26 11L27 11L27 10L28 10L28 8L27 8L27 10L26 10L26 8L25 8L25 9L24 9L24 8L23 8L23 9L22 9L22 8L21 8L21 6L20 6L20 7L19 7L19 6L18 6L18 5L20 5L20 4L21 4L21 2L20 2L20 1L17 1L17 0L16 0L16 1L15 1L15 0L14 0L14 1L11 1L11 2L10 2L10 0ZM16 1L16 2L15 2L15 3L16 3L16 4L15 4L15 7L14 7L14 6L13 6L13 7L14 7L14 8L16 8L16 6L17 6L17 8L18 8L18 9L16 9L16 11L13 11L13 13L12 13L12 12L10 12L10 13L9 13L9 14L10 14L10 15L11 15L11 14L14 14L14 13L15 13L15 16L14 16L14 17L13 17L13 18L14 18L14 20L13 20L13 19L12 19L12 20L11 20L11 21L12 21L12 22L14 22L14 20L16 20L16 19L17 19L17 18L18 18L18 19L19 19L19 18L20 18L20 19L21 19L21 20L22 20L22 19L25 19L25 20L27 20L27 19L25 19L25 17L24 17L24 18L22 18L22 16L19 16L19 15L25 15L25 14L24 14L24 13L23 13L23 12L22 12L22 13L20 13L20 12L19 12L19 13L18 13L18 12L17 12L17 14L16 14L16 13L15 13L15 12L16 12L16 11L17 11L17 10L18 10L18 11L23 11L23 10L24 10L24 11L25 11L25 10L24 10L24 9L23 9L23 10L21 10L21 9L20 9L20 8L18 8L18 6L17 6L17 5L18 5L18 4L20 4L20 3L18 3L18 4L17 4L17 3L16 3L16 2L17 2L17 1ZM12 2L12 3L13 3L13 5L14 5L14 2ZM10 3L10 4L11 4L11 3ZM16 4L16 5L17 5L17 4ZM8 5L8 7L9 7L9 5ZM10 9L10 11L11 11L11 9ZM19 9L19 10L20 10L20 9ZM28 11L28 12L29 12L29 11ZM10 13L10 14L11 14L11 13ZM22 13L22 14L23 14L23 13ZM17 14L17 15L18 15L18 14ZM5 15L5 16L7 16L7 15ZM15 16L15 17L16 17L16 18L17 18L17 16ZM9 17L9 18L10 18L10 17ZM18 17L18 18L19 18L19 17ZM20 17L20 18L21 18L21 17ZM6 19L6 20L7 20L7 19ZM12 20L12 21L13 21L13 20ZM17 20L17 21L16 21L16 22L15 22L15 24L14 24L14 23L12 23L12 24L11 24L11 25L12 25L12 26L11 26L11 27L12 27L12 26L14 26L14 25L15 25L15 24L16 24L16 25L17 25L17 26L18 26L18 27L19 27L19 26L20 26L20 27L21 27L21 26L20 26L20 25L19 25L19 23L20 23L20 20L19 20L19 22L18 22L18 20ZM21 21L21 24L24 24L24 21ZM25 21L25 22L27 22L27 21ZM17 22L17 23L16 23L16 24L17 24L17 23L18 23L18 22ZM22 22L22 23L23 23L23 22ZM13 24L13 25L14 25L14 24ZM9 26L9 27L10 27L10 26ZM26 26L26 27L25 27L25 28L24 28L24 29L27 29L27 27L28 27L28 28L29 28L29 27L28 27L28 26ZM15 28L15 29L16 29L16 28ZM0 0L7 0L7 7L0 7ZM1 1L1 6L6 6L6 1ZM2 5C2 2 2 2 5 2M5 2C5 5 5 5 2 5M22 0L29 0L29 7L22 7ZM23 1L23 6L28 6L28 1ZM24 5C24 2 24 2 27 2M27 2C27 5 27 5 24 5M0 22L7 22L7 29L0 29ZM1 23L1 28L6 28L6 23ZM2 27C2 24 2 24 5 24M5 24C5 27 5 27 2 27"
        fill="url(#g1)" />
    </g>
  </g>
</svg>
